<?xml version="1.0" standalone="no"?>
<!DOCTYPE svg PUBLIC "-//W3C//DTD SVG 20010904//EN"
 "http://www.w3.org/TR/2001/REC-SVG-20010904/DTD/svg10.dtd">
<svg version="1.0" xmlns="http://www.w3.org/2000/svg"
 width="738.000000pt" height="738.000000pt" viewBox="0 0 738.000000 738.000000"
 preserveAspectRatio="xMidYMid meet">
<metadata>
Created by potrace 1.14, written by Peter Selinger 2001-2017
</metadata>
<g transform="translate(0.000000,738.000000) scale(0.100000,-0.100000)"
fill="#000000" stroke="none">
<path d="M1522 6188 l3 -323 89 -7 c103 -9 151 -29 183 -77 l23 -34 0 -488 c0
-319 -4 -506 -11 -541 -27 -127 -116 -232 -237 -279 -79 -31 -301 -39 -388
-14 -121 35 -201 110 -239 226 -27 79 -15 90 28 26 71 -108 174 -159 320 -159
105 0 179 31 254 104 151 148 155 423 8 573 -166 171 -473 180 -664 20 -171
-142 -246 -407 -192 -671 24 -115 55 -193 116 -283 85 -129 199 -223 357 -295
66 -31 101 -43 223 -75 22 -6 108 -16 191 -23 161 -12 387 -2 489 23 84 20
223 68 278 95 209 106 389 309 446 504 55 184 54 172 60 730 4 387 9 531 18
546 33 57 115 94 208 94 64 0 60 -19 58 328 l-2 317 -811 3 -810 2 2 -322z"/>
<path d="M3720 5980 l0 -500 280 0 280 0 0 50 c0 28 5 94 11 148 12 113 38
177 87 209 35 23 112 37 172 31 l35 -3 3 -601 2 -601 -22 -33 c-32 -48 -70
-66 -168 -82 l-85 -14 0 -310 0 -309 788 -3 787 -2 -2 317 c-3 277 -5 318 -18
315 -28 -7 -159 21 -190 39 -16 10 -39 33 -50 51 -19 32 -20 49 -18 633 l3
600 35 3 c60 6 137 -8 172 -31 18 -12 43 -42 55 -67 23 -47 43 -180 43 -282
l0 -58 280 0 280 0 0 500 0 500 -1380 0 -1380 0 0 -500z"/>
<path d="M3687 3433 c-4 -3 -7 -142 -7 -308 0 -221 3 -304 12 -313 7 -7 36
-12 65 -12 60 0 96 -15 134 -57 36 -38 48 -63 138 -295 95 -246 230 -592 434
-1118 l154 -395 380 -3 380 -2 67 172 c132 335 227 578 401 1023 224 574 223
572 258 612 41 47 77 63 140 63 34 0 59 5 66 14 8 9 11 101 9 317 l-3 304
-495 0 -495 0 -3 -304 c-2 -216 1 -308 9 -317 6 -8 29 -14 50 -14 84 0 149
-49 149 -111 0 -11 -50 -173 -111 -358 -61 -185 -124 -374 -139 -421 -15 -46
-32 -86 -37 -87 -6 -2 -34 70 -62 159 -29 90 -89 275 -132 411 -44 136 -83
262 -85 280 -12 72 34 115 136 126 l55 6 3 318 2 317 -733 0 c-404 0 -737 -3
-740 -7z"/>
<path d="M737 3324 c-11 -11 -9 -562 2 -569 6 -3 41 -9 80 -14 85 -11 130 -35
153 -81 16 -32 18 -77 18 -490 0 -433 -1 -457 -20 -487 -28 -46 -56 -61 -140
-74 -41 -6 -81 -13 -87 -15 -10 -3 -13 -69 -13 -289 l0 -285 643 -2 c995 -4
1129 -3 1249 16 540 85 843 365 933 861 17 96 20 447 4 527 -24 124 -32 156
-51 213 -32 95 -107 232 -170 311 -141 178 -342 293 -620 356 -90 21 -119 22
-1033 25 -518 2 -944 1 -948 -3z m1423 -585 c104 -13 162 -37 218 -92 67 -65
103 -144 128 -282 27 -151 14 -380 -29 -503 -24 -68 -79 -151 -122 -183 -77
-57 -135 -72 -290 -73 l-140 -1 -3 560 c-1 308 0 566 3 573 6 15 118 16 235 1z"/>
</g>
</svg>
